<svg xmlns="http://www.w3.org/2000/svg" viewBox="0 0 698.42 198.24"><defs><style>.cls-1{fill:#fa7816;}.cls-2{fill:#050506;}.cls-3{fill:none;}</style></defs><g id="Layer_2" data-name="Layer 2"><g id="Layer_1-2" data-name="Layer 1"><path class="cls-1" d="M38.39,114,.29,117.05,41.9,65.52,6.57,68.45,71.56,0c-8.33,17.59-15,31.55-22,46.47h30l-37.73,51H74.49L1.4,198.24,0,197.59Z"/><path class="cls-2" d="M82.81,46.66,76.94,81.11h59.17l-4.46,28.4H71.93c-4,22.7-8.05,45.2-12.05,67.72H19.54l58.6-80.79H45.37L63.84,71.38l-.19,0q9.41-12.4,18.82-24.79l.08.25Z"/><path class="cls-2" d="M82.6,46.29l-29.15-1.5,13-27.2h84.71C149.43,27,147.79,36.24,146,46.3H82.6Z"/><polygon class="cls-1" points="82.6 46.29 82.69 46.3 82.9 46.46 82.81 46.66 82.55 46.79 82.47 46.54 82.41 46.39 82.6 46.29"/><path class="cls-3" d="M159.19,147c0,6.57,4.32,9.76,10.9,9.76,7.45,0,16.79-6.21,18.87-17.39V139l1.21-7.28C172.34,129.81,159.19,135.31,159.19,147Z"/><path d="M186.54,76.41c-22.85,0-41.9,12.24-45.88,33.88h26c2.25-9.4,7.79-14.72,17.14-14.72,7.61,0,10.38,4.43,10.38,9.76a57.12,57.12,0,0,1-.86,9.22l-.17,1.07c-39-2.13-62.15,12.24-62.15,35.13,0,17,11.6,25.19,25.79,25.19,8.83,0,17-2.13,23.2-6.74l5.71-9.4-.34,13.66h26.48a184.41,184.41,0,0,1,2.43-24l4.84-28.21c1.56-8.88,2.43-14.2,2.43-19.34C221.51,87.23,212,76.41,186.54,76.41ZM189,139v.35c-2.08,11.18-11.42,17.39-18.87,17.39-6.58,0-10.9-3.19-10.9-9.76,0-11.71,13.15-17.21,31-15.26Z"/><path d="M273.78,94.68c6.58,0,10.22,4.44,11.08,12.24h26.66c-.86-17.21-11.42-30-36.7-30-26.14,0-39.64,13.84-39.64,30,0,15.62,9.52,21.65,24.41,27,15.41,5.33,19.73,9.05,19.73,15.26,0,6.57-5.19,9.94-12.29,9.94-7.79,0-14-3.73-14.88-13.66h-27c1,19.69,15.23,31.58,40.85,31.58,24.59,0,41.72-11.36,41.72-30.7,0-14.55-8-22.53-26-28.56-14-4.79-18.18-7.63-18.18-14.37C263.57,98.58,267,94.68,273.78,94.68Z"/><path d="M367.26,55.82H340.09L335.93,79.6H322.6l-3.11,17.74h13.32l-7.44,43.47c-1.38,8.7-1.9,13.84-1.9,17.75,0,11.53,6.58,17.21,23.37,17.21a83.55,83.55,0,0,0,19-2.13L369,155.72c-11.78,1.59-17-.18-17-8a47.2,47.2,0,0,1,1.21-10.64l6.93-39.75H379l3.11-17.74h-19Z"/><path d="M429.24,43.05h-27L384.92,141.7c-1.56,9.05-2.25,14.73-2.25,19.52,0,9.93,6.41,13.84,19.56,13.84A92.44,92.44,0,0,0,417.29,174l3.12-17.56c-6.75.35-9.35-.54-9.35-5.86a46.92,46.92,0,0,1,1.21-9.4Z"/><path d="M467,42.34c-10.55,0-16.27,8.16-16.27,16.15,0,7.45,4.85,12.06,12.64,12.06,10.73,0,16.27-8.34,16.27-16.32C479.61,47,474.76,42.34,467,42.34Z"/><polygon points="430.79 173.46 457.97 173.46 474.25 78.89 447.24 78.89 430.79 173.46"/><path d="M551.8,76.41c-8.66,0-15.76,1.77-22.68,6l-9.69,10.47,2.42-14h-27l-16.27,94.57h27.18L513,130.17c4.33-24.13,13.5-34.42,24.58-34.6,10.22,0,13.68,5.68,13.68,14.19,0,3.37-.69,8.34-1.73,15.08l-8.49,48.62h27l9.52-54.29c1.56-8.7,2.08-13.49,2.08-18.46C579.67,86.52,570.67,76.41,551.8,76.41Z"/><polygon points="698.42 78.89 666.22 78.89 624.16 120.05 637.49 43.05 610.31 43.05 587.8 173.46 614.98 173.46 619.83 145.07 629.52 136.38 652.2 173.46 685.09 173.46 650.82 123.07 698.42 78.89"/></g></g></svg>